<svg id="Layer_1" data-name="Layer 1" xmlns="http://www.w3.org/2000/svg" viewBox="0 0 1080 1080"><defs><style>.cls-1{fill:#002147;}.cls-2{fill:#0073e6;}</style></defs><path class="cls-1" d="M308.56,437.48h8c-9,11.37-18.05,22.91-27.18,34.35l-39.2-15.66a4.8,4.8,0,0,1-3-4.68l1.36-31.42,3.16,1.66c6.83,3.59,13.9,7.32,20.67,11.12a36,36,0,0,0,18.05,4.64h18.12Z"/><path class="cls-1" d="M353.46,437.51h7.87c-10.7,39.43-21.17,90-32.54,139.83l-42.11,2.9a4.81,4.81,0,0,1-4.75-2.91L267.54,543.8a4.83,4.83,0,0,1,1.84-6l30.74-19.53q-3.17-9.48-5.54-19.1c13.26-20.88,26.16-41.59,39-61.71Z"/><path class="cls-1" d="M410.05,655.3l-36.69,20.89a4.83,4.83,0,0,1-5.54-.56l-27.51-24a4.8,4.8,0,0,1-.92-6.16l19.2-31q-6.94-7.15-13.27-14.8C351.85,544.34,357,490.56,366.72,441q1.11.87,2.22,1.71a171.9,171.9,0,0,0,3.75,31.4h0C376.4,516.94,394.35,586.49,410.05,655.3Z"/><path class="cls-1" d="M382.14,504.42c12.68,52.46,32.93,107,52.52,163.91q9,4.14,18.38,7.58l-3.88,36.21a4.82,4.82,0,0,0,3.51,5.15l35.18,9.66a4.8,4.8,0,0,0,5.24-1.9l24-34.74c-44-55.18-90.35-110-112.29-147.06h0A171.07,171.07,0,0,1,382.14,504.42Z"/><path class="cls-1" d="M426.47,566.46c34.19,41.76,76.08,82.1,118.44,124.89,6.6-.11,13.23-.5,19.85-1.15L577,724.51a4.81,4.81,0,0,0,5.41,3.12l35.88-6.56a4.78,4.78,0,0,0,3.89-4l6.55-41.7c-63.59-30.63-129.15-60-165-83.78h0A171.06,171.06,0,0,1,426.47,566.46Z"/><path class="cls-1" d="M493.33,603.13c48.93,22.79,104.17,41,160.9,61.13q8.85-4.46,17.39-9.65l25.89,25.61a4.81,4.81,0,0,0,6.22.47l29.48-21.48a4.8,4.8,0,0,0,1.78-5.28l-12.2-40.42c-70.58,0-142.37,2-185-3.89h0A171.21,171.21,0,0,1,493.33,603.13Z"/><path class="cls-1" d="M569.48,607.15c54-.69,111.62-8.3,171.49-14.73q6-7.86,11.48-16.24L786.89,588a4.81,4.81,0,0,0,5.81-2.27l17.24-32.15a4.82,4.82,0,0,0-.69-5.53L780.73,517c-63.6,30.62-127.41,63.6-168.37,76.76v0A170.73,170.73,0,0,1,569.48,607.15Z"/><path class="cls-1" d="M833.25,425.16l-1.59,36.45a4.79,4.79,0,0,1-4.25,4.56l-36.17,4.28c-.84,6.6-1.94,13.15-3.29,19.61-51.14,31.76-99.79,63.63-148.12,87.68A171.62,171.62,0,0,0,672.64,547c25-23.77,57.77-65.42,92.46-109.45h6.49q11.16,0,22.32,0H794a20.21,20.21,0,0,0,9.86-2.43c4.14-2.25,8.29-4.56,12.32-6.79,4.68-2.6,9.46-5.25,14.25-7.84A4.82,4.82,0,0,1,833.25,425.16Z"/><path class="cls-1" d="M719.6,437.34c9.41.11,18.87.17,28.27.2-18.8,29.42-37.55,57.59-57.41,83.17a171.21,171.21,0,0,0,16.22-41.92C711.07,467.22,715.36,453.15,719.6,437.34Z"/><path class="cls-1" d="M645.79,208.32c17.18,49.94,34.87,98,47.51,144.49h-4.63a170.67,170.67,0,0,0-13-19.4h0c-21.94-37-68.28-91.87-112.29-147.06l24-34.73a4.82,4.82,0,0,1,5.23-1.91l35.18,9.67a4.8,4.8,0,0,1,3.51,5.15l-3.88,36.21Q636.76,204.19,645.79,208.32Z"/><path class="cls-1" d="M654,310.19c-34.19-41.76-76.08-82.1-118.43-124.9q-9.91.18-19.86,1.15l-12.21-34.3a4.82,4.82,0,0,0-5.4-3.13l-35.89,6.56a4.83,4.83,0,0,0-3.89,4l-6.55,41.71c63.59,30.62,129.16,60,165,83.77h0A170.59,170.59,0,0,1,654,310.19Z"/><path class="cls-1" d="M587.11,273.52c-48.92-22.79-104.17-40.95-160.9-61.14q-8.85,4.47-17.38,9.66l-25.89-25.62a4.81,4.81,0,0,0-6.23-.46l-29.48,21.48a4.8,4.8,0,0,0-1.78,5.28l12.2,40.41c70.58,0,142.38-2,185,3.9h0A171.21,171.21,0,0,1,587.11,273.52Z"/><path class="cls-1" d="M468.08,283h0c-37.69,12.11-94.73,41-153.16,69.39h-.52c-7,.11-14.21.15-21.28.17h0L271.2,328.58a4.8,4.8,0,0,1-.7-5.53l17.25-32.15a4.81,4.81,0,0,1,5.8-2.28L328,300.46c3.63-5.57,7.46-11,11.48-16.24C399.34,277.8,457,270.19,511,269.5A170.91,170.91,0,0,0,468.08,283Z"/><path class="cls-1" d="M440.61,298.91a171.62,171.62,0,0,0-32.81,30.72c-6.71,6.38-14,14-21.68,22.69h-38.8C378.92,332.72,409.83,314.23,440.61,298.91Z"/><path class="cls-1" d="M811.06,338.81l-21.59,13.73H767.4c-9.12,0-18.37,0-27.68,0,3.9-17.5,7.86-35.44,11.93-53.27l42.11-2.91a4.84,4.84,0,0,1,4.76,2.91l14.38,33.53A4.81,4.81,0,0,1,811.06,338.81Z"/><path class="cls-1" d="M741.06,231.15l-19.21,30.94q6.95,7.17,13.28,14.81c-3,25.68-5.76,51-8.78,75.75q-9,.06-17.92.17H700.1c-7.57-38.59-19.15-85.19-29.71-131.47l36.69-20.88a4.82,4.82,0,0,1,5.54.56l27.51,24A4.8,4.8,0,0,1,741.06,231.15Z"/><path class="cls-2" d="M684,365.46a12.87,12.87,0,0,1-3.38,2.9c-13.05,9.84-26.21,19.54-39.15,29.51-17.53,13.49-35.26,26.72-53,39.91-12.89,9.58-25.83,19.09-38.58,28.85-3,2.25-6,4.33-9,6.58a1.26,1.26,0,0,1-1.19.32h0c-2.25-1.67-4.46-3.34-6.66-5q-5.75-4.31-11.48-8.61l-56.88-42.87-17.19-12.94-8.19-6.18-40.81-30.76-2.11-1.6h3.9c27-.05,54,0,80.95-.24a12.8,12.8,0,0,1,8.4,2.82c15.79,12,31.7,23.83,47.56,35.73,2.74,2.06,2.76,2.1,5.62,0l46.56-34.21c1.24-.91,2.57-1.72,3.73-2.72a5.39,5.39,0,0,1,3.77-1.29q32.94-.07,65.86-.2C669.71,365.44,676.73,365.46,684,365.46Z"/><path class="cls-2" d="M833.28,402.8c-2.07-11.41-4.55-22.74-6.92-34.09-.28-1.31-.71-1.75-2.07-1.75h0c-13.79.06-27.57,0-41.36.05h-.66c-15.17,0-30.34,0-45.51.05l-12,.06c-6,0-12,.1-17.93.18a5.73,5.73,0,0,0-3.76,1.31l-4.75,3.82-.07.06c-2.06,1.64-4.12,3.26-6.21,4.84-15.36,11.63-75.2,56.61-89.78,67.47-9.4,7-18.88,13.87-28.15,21-10.75,8.33-21.64,16.49-32.77,24.3a2.16,2.16,0,0,1-1.24.5,2,2,0,0,1-1.16-.48c-8.52-6.44-17.1-12.81-25.64-19.24l-74.07-55.82q-24.51-18.46-49-36.94c-2.57-1.94-5.11-3.88-7.66-5.82-.9-.69-1.81-1.39-2.72-2.07l-3.13-2.38a4.35,4.35,0,0,0-2.4-1.09.75.75,0,0,0-.21,0h0q-19.26,0-38.51,0H314.69c-19.73.29-39.45.07-59.18.37-1.48,0-1.91.5-2.18,1.87-2,10.25-4.12,20.49-6.2,30.74-.86,4.18-.87,4.17,2.91,6.18l8.65,4.57c6.87,3.62,13.74,7.24,20.51,11a22.24,22.24,0,0,0,11.32,2.9h.06q9,0,18.06,0l18.88,0h36.66a9.51,9.51,0,0,1,1.09.07,7.51,7.51,0,0,1,4.07,1.71c6.2,4.95,12.61,9.66,19,14.44,21.41,16.12,42.75,32.36,64.15,48.5,19.48,14.68,39.07,29.25,58.37,44.2,9.44,7.31,18.91,14.59,28.62,21.55.36.25.68.58,1.09.58a1.17,1.17,0,0,0,.7-.28c2.09-1.58,4.29-3,6.38-4.61q27.35-20.72,54.65-41.46,36.24-27.57,72.66-54.87c12.17-9.09,24-18.57,36.27-27.56l1.84-1.36a4.71,4.71,0,0,1,2.91-1.11h.15l7.17.08q16.71.18,33.42.19H776l18,0h0a6.49,6.49,0,0,0,3.26-.75c5.55-3,11.08-6.11,16.61-9.17,6.11-3.39,12.23-6.75,18.43-10A1.45,1.45,0,0,0,833.28,402.8Z"/><path class="cls-2" d="M329.35,764l-35.22,99.27H263.87L228.66,764H254.4L279,839l24.75-75Z"/><path class="cls-2" d="M374.17,764v99.27H350V764Z"/><path class="cls-2" d="M418.72,860.76a31.75,31.75,0,0,1-13.79-10.46,28.53,28.53,0,0,1-5.44-16.69h25.73q.57,5.52,3.82,8.42a12.3,12.3,0,0,0,8.49,2.9q5.37,0,8.48-2.48a8.28,8.28,0,0,0,3.11-6.86,8.13,8.13,0,0,0-2.47-6.08,20.12,20.12,0,0,0-6.08-4A100.58,100.58,0,0,0,430.31,822a111.35,111.35,0,0,1-15.69-5.94,28.91,28.91,0,0,1-10.47-8.77q-4.38-5.79-4.38-15.13,0-13.86,10-21.71T436,762.62q16.41,0,26.45,7.85t10.74,21.85H447a10.28,10.28,0,0,0-3.53-7.57,12.5,12.5,0,0,0-8.35-2.75,10.43,10.43,0,0,0-7.07,2.33,8.44,8.44,0,0,0-2.69,6.72,8.32,8.32,0,0,0,4.53,7.49,74.06,74.06,0,0,0,14.14,5.8,131.44,131.44,0,0,1,15.63,6.22,29.8,29.8,0,0,1,10.39,8.63q4.38,5.65,4.39,14.57a28.55,28.55,0,0,1-4.32,15.41,30.18,30.18,0,0,1-12.51,11q-8.21,4.11-19.38,4.1A51,51,0,0,1,418.72,860.76Z"/><path class="cls-2" d="M585.87,764v99.27H561.69V822.44H524.07v40.87H499.89V764h24.18v38.89h37.62V764Z"/><path class="cls-2" d="M750.47,764l-25.88,99.27H695.32L679.48,798l-16.4,65.33H633.81L608.63,764h25.88L648.8,836.3,666.47,764h26.59l17,72.26L724.45,764Z"/><path class="cls-2" d="M819.81,845.77h-37l-5.94,17.54H751.5L787.42,764h28l35.92,99.27H825.75Zm-6.23-18.66-12.3-36.34-12.16,36.34Z"/><path class="cls-1" d="M330,897.6v33.13h-5.43V897.6Z"/><path class="cls-1" d="M383.39,930.73H378L361.6,906v24.74h-5.43V897.55h5.43L378,922.25v-24.7h5.44Z"/><path class="cls-1" d="M429.7,899.63a14.56,14.56,0,0,1,6.15,5.81,17.59,17.59,0,0,1,2.17,8.85,17.18,17.18,0,0,1-2.17,8.77,14.35,14.35,0,0,1-6.15,5.69,20.6,20.6,0,0,1-9.27,2H409.61V897.6h10.82A20.22,20.22,0,0,1,429.7,899.63Zm-.36,23.52q3.11-3.15,3.1-8.86t-3.1-9q-3.1-3.24-8.91-3.25H415V926.3h5.39Q426.24,926.3,429.34,923.15Z"/><path class="cls-1" d="M467.86,897.6v21.12c0,2.51.65,4.4,2,5.67a9,9,0,0,0,11.06,0,7.52,7.52,0,0,0,2-5.67V897.6h5.44v21a12.67,12.67,0,0,1-1.77,6.87,10.93,10.93,0,0,1-4.72,4.19,15.22,15.22,0,0,1-6.53,1.38,15.05,15.05,0,0,1-6.5-1.38,10.64,10.64,0,0,1-4.65-4.19,12.93,12.93,0,0,1-1.72-6.87v-21Z"/><path class="cls-1" d="M519.34,929.9a9.91,9.91,0,0,1-4.2-3.32,8.37,8.37,0,0,1-1.52-5h5.81a5.29,5.29,0,0,0,1.69,3.53,6,6,0,0,0,4.22,1.38,6.48,6.48,0,0,0,4.39-1.36,4.41,4.41,0,0,0,1.57-3.5,3.83,3.83,0,0,0-1-2.72,6.49,6.49,0,0,0-2.43-1.62,35.72,35.72,0,0,0-4-1.24,37.08,37.08,0,0,1-5.26-1.74,8.71,8.71,0,0,1-3.46-2.74,7.94,7.94,0,0,1-1.43-5,8.81,8.81,0,0,1,1.43-5,9.09,9.09,0,0,1,4-3.29,14.39,14.39,0,0,1,6-1.15,12.45,12.45,0,0,1,7.89,2.41,8.87,8.87,0,0,1,3.41,6.6h-6a4.37,4.37,0,0,0-1.72-3.1,6.39,6.39,0,0,0-4.15-1.28,5.83,5.83,0,0,0-3.81,1.19,4.13,4.13,0,0,0-1.48,3.43,3.47,3.47,0,0,0,.93,2.5,6.6,6.6,0,0,0,2.36,1.55,35.78,35.78,0,0,0,3.91,1.24,42.33,42.33,0,0,1,5.36,1.81,9.06,9.06,0,0,1,3.53,2.79,8,8,0,0,1,1.45,5,9,9,0,0,1-1.36,4.77,9.81,9.81,0,0,1-3.95,3.6,13.13,13.13,0,0,1-6.13,1.35A14.8,14.8,0,0,1,519.34,929.9Z"/><path class="cls-1" d="M583.69,897.6V902h-8.82v28.7h-5.44V902h-8.86V897.6Z"/><path class="cls-1" d="M625.44,930.73l-7.62-13.25h-4.15v13.25h-5.43V897.6h11.44a14.18,14.18,0,0,1,6.45,1.34,9.22,9.22,0,0,1,4,3.57,9.78,9.78,0,0,1,1.31,5,9.92,9.92,0,0,1-1.88,5.88,9.53,9.53,0,0,1-5.79,3.6l8.2,13.73Zm-11.77-17.59h6a6.35,6.35,0,0,0,4.6-1.52,5.52,5.52,0,0,0,1.55-4.1,5.29,5.29,0,0,0-1.53-4,6.48,6.48,0,0,0-4.62-1.46h-6Z"/><path class="cls-1" d="M662.86,897.6v33.13h-5.43V897.6Z"/><path class="cls-1" d="M694.51,902v9.72H706v4.43H694.51V926.3h12.87v4.43h-18.3V897.55h18.3V902Z"/><path class="cls-1" d="M738,929.9a9.88,9.88,0,0,1-4.19-3.32,8.37,8.37,0,0,1-1.53-5h5.82a5.29,5.29,0,0,0,1.69,3.53,6,6,0,0,0,4.22,1.38,6.5,6.5,0,0,0,4.39-1.36,4.44,4.44,0,0,0,1.57-3.5,3.83,3.83,0,0,0-1-2.72,6.49,6.49,0,0,0-2.43-1.62,35.72,35.72,0,0,0-4-1.24,37.08,37.08,0,0,1-5.26-1.74,8.64,8.64,0,0,1-3.46-2.74,7.94,7.94,0,0,1-1.43-5,8.81,8.81,0,0,1,1.43-5,9.12,9.12,0,0,1,4-3.29,14.47,14.47,0,0,1,6-1.15,12.45,12.45,0,0,1,7.89,2.41,8.87,8.87,0,0,1,3.41,6.6h-6a4.32,4.32,0,0,0-1.71-3.1,6.39,6.39,0,0,0-4.15-1.28,5.83,5.83,0,0,0-3.81,1.19,4.13,4.13,0,0,0-1.48,3.43,3.47,3.47,0,0,0,.93,2.5,6.51,6.51,0,0,0,2.36,1.55,35.08,35.08,0,0,0,3.91,1.24,42.33,42.33,0,0,1,5.36,1.81,9.06,9.06,0,0,1,3.53,2.79,8,8,0,0,1,1.45,5,9,9,0,0,1-1.36,4.77,9.81,9.81,0,0,1-4,3.6,13.16,13.16,0,0,1-6.13,1.35A14.85,14.85,0,0,1,738,929.9Z"/></svg>